<svg width="1362" height="605" viewBox="0 0 1362 605" fill="none" xmlns="http://www.w3.org/2000/svg">
<path d="M0 60C0 26.8629 26.8629 0 60 0H418.837C435.911 0 452.177 7.27484 463.56 20.0022L506.798 68.3489C518.181 81.0762 534.447 88.3511 551.522 88.3511H1302C1335.14 88.3511 1362 115.214 1362 148.351V545C1362 578.137 1335.14 605 1302 605H424.987C406.319 605 388.714 596.311 377.36 581.492L342.998 536.646C331.644 521.828 314.04 513.138 295.371 513.138H60C26.8629 513.138 0 486.275 0 453.138V60Z" fill="url(#paint0_linear_226_30)"/>
<defs>
<linearGradient id="paint0_linear_226_30" x1="1.74413e-06" y1="2.08621" x2="493.08" y2="1025.66" gradientUnits="userSpaceOnUse">
<stop stop-color="#00188F"/>
<stop offset="1" stop-color="#000729"/>
</linearGradient>
</defs>
</svg>
