<svg width="938" height="938" viewBox="0 0 938 938" fill="none" xmlns="http://www.w3.org/2000/svg">
<circle cx="469" cy="469" r="454" fill="#1A2B44" stroke="white" stroke-width="30"/>
<path d="M141.923 291.007L158.331 290.131L151.679 275.299C151.679 275.299 148.641 276.975 146.537 277.639C144.055 278.423 139.962 278.72 139.962 278.72C139.962 278.72 141.541 282.517 141.906 285.093C142.23 287.38 141.923 291.007 141.923 291.007Z" stroke="white" stroke-width="7"/>
<path d="M141.923 644.111L158.331 644.987L151.679 659.818C151.679 659.818 148.641 658.143 146.537 657.478C144.055 656.695 139.962 656.397 139.962 656.397C139.962 656.397 141.541 652.6 141.906 650.024C142.23 647.737 141.923 644.111 141.923 644.111Z" stroke="white" stroke-width="7"/>
<path d="M608 325.705C608 289.714 593.355 255.197 567.288 229.747C541.22 204.297 505.865 190 469 190C432.135 190 396.78 204.297 370.712 229.747C344.645 255.197 330 289.714 330 325.705L469 325.705H608Z" fill="white"/>
<path d="M608 325.705C608 361.696 593.355 396.214 567.288 421.663C541.22 447.113 505.865 461.41 469 461.41C432.135 461.41 396.78 447.113 370.712 421.663C344.645 396.214 330 361.697 330 325.705L469 325.705H608Z" fill="white"/>
<path d="M553.762 302.536C553.762 280.882 544.951 260.116 529.268 244.805C513.585 229.494 492.315 220.892 470.136 220.892C447.957 220.892 426.686 229.494 411.003 244.805C395.32 260.116 386.51 280.882 386.51 302.536L470.136 302.536H553.762Z" fill="#1A2B44"/>
<path d="M553.762 320.188C553.762 339.5 544.951 358.021 529.268 371.677C513.585 385.333 492.315 393.005 470.136 393.005C447.957 393.005 426.686 385.333 411.003 371.677C395.32 358.021 386.51 339.5 386.51 320.188L470.136 320.188H553.762Z" fill="#1A2B44"/>
<path d="M406.848 283.85C406.848 278.327 411.325 273.85 416.848 273.85H523.417C528.94 273.85 533.417 278.327 533.417 283.85V302.535H406.848V283.85Z" fill="white"/>
<circle cx="435.098" cy="303.639" r="10.0495" fill="#1A2B44"/>
<circle cx="505.167" cy="303.639" r="10.0495" fill="#1A2B44"/>
<path d="M427.184 259.371C427.184 252.744 432.556 247.371 439.184 247.371H503.33C509.957 247.371 515.33 252.744 515.33 259.371V278.263H427.184V259.371Z" fill="white"/>
<path d="M474.648 253.991H500.291C503.604 253.991 506.291 256.678 506.291 259.991V271.644H474.648V253.991Z" fill="#1A2B44"/>
<path d="M467.871 253.991H442.229C438.915 253.991 436.229 256.678 436.229 259.991V271.644H467.871V253.991Z" fill="#1A2B44"/>
<path d="M461.094 242.752C461.094 241.647 461.989 240.752 463.094 240.752H477.175C478.28 240.752 479.175 241.647 479.175 242.752V247.372H461.094V242.752Z" fill="white"/>
<path d="M467.874 571.739L580.881 406.245H357.119L467.874 571.739Z" fill="white"/>
<path d="M526.637 320.189H607.912C607.912 320.189 608.033 324.897 607.98 327.912C607.927 330.931 607.641 335.636 607.641 335.636H526.637V320.189Z" fill="#1A2B44"/>
<path d="M449.789 337.841C449.789 337.841 461.301 343.357 469 343.357C476.7 343.357 488.212 337.841 488.212 337.841" stroke="white" stroke-width="2" stroke-linecap="round"/>
<path d="M488.641 344.169C488.641 344.169 489.754 339.79 489.216 337.415C488.677 335.04 485.953 332.316 485.953 332.316" stroke="white" stroke-width="2" stroke-linecap="round"/>
<path d="M447.277 344.169C447.277 344.169 446.164 339.79 446.702 337.415C447.241 335.04 449.964 332.316 449.964 332.316" stroke="white" stroke-width="2" stroke-linecap="round"/>
<path d="M460.035 97.2264L469.493 110.663L478.525 97.1487C478.525 97.1487 475.492 95.4641 473.811 94.0345C471.829 92.3485 469.402 89.0385 469.402 89.0385C469.402 89.0385 467.025 92.3937 465.036 94.0714C463.271 95.5602 460.035 97.2264 460.035 97.2264Z" stroke="white" stroke-width="7"/>
<path d="M460.035 839.476L469.493 826.039L478.525 839.554C478.525 839.554 475.492 841.239 473.811 842.668C471.829 844.354 469.402 847.664 469.402 847.664C469.402 847.664 467.025 844.309 465.036 842.631C463.271 841.142 460.035 839.476 460.035 839.476Z" stroke="white" stroke-width="7"/>
<path d="M786.388 275.358L780.028 290.51L796.276 290.983C796.276 290.983 796.092 287.518 796.41 285.334C796.786 282.759 798.301 278.945 798.301 278.945C798.301 278.945 794.196 278.713 791.718 277.919C789.518 277.214 786.388 275.358 786.388 275.358Z" stroke="white" stroke-width="7"/>
<path d="M786.388 659.832L780.028 644.68L796.276 644.207C796.276 644.207 796.092 647.672 796.41 649.855C796.786 652.43 798.301 656.244 798.301 656.244C798.301 656.244 794.196 656.476 791.718 657.27C789.518 657.975 786.388 659.832 786.388 659.832Z" stroke="white" stroke-width="7"/>
<path d="M834.186 258.159V679.84L469 890.679L103.814 679.84V258.159L469 47.3203L834.186 258.159Z" stroke="white" stroke-width="30"/>
<path d="M554.808 128.46C549.35 127.712 542.911 126.869 535.896 126.025C515.071 123.522 489.024 121 468.5 121C447.976 121 421.929 123.522 401.104 126.025C394.173 126.859 387.804 127.691 382.389 128.433L468.992 78.0537L554.808 128.46Z" stroke="white" stroke-width="7"/>
<path d="M554.808 809.04C549.35 809.788 542.911 810.631 535.896 811.475C515.071 813.978 489.024 816.5 468.5 816.5C447.976 816.5 421.929 813.978 401.104 811.475C394.173 810.641 387.804 809.809 382.389 809.067L468.992 859.446L554.808 809.04Z" stroke="white" stroke-width="7"/>
<path d="M217.433 224.222C214.045 228.566 210.082 233.71 205.829 239.352C193.204 256.102 177.939 277.357 167.63 295.104C157.32 312.85 146.417 336.64 138.121 355.904C135.36 362.316 132.881 368.242 130.802 373.297L130.742 273.106L217.433 224.222Z" stroke="white" stroke-width="7"/>
<path d="M217.433 711.158C214.045 706.814 210.082 701.67 205.829 696.028C193.204 679.278 177.939 658.023 167.63 640.276C157.32 622.529 146.417 598.74 138.121 579.476C135.36 573.064 132.881 567.138 130.802 562.083L130.742 662.274L217.433 711.158Z" stroke="white" stroke-width="7"/>
<path d="M720.86 711.158C724.248 706.814 728.211 701.67 732.464 696.028C745.089 679.278 760.354 658.023 770.663 640.276C780.973 622.529 791.876 598.74 800.172 579.476C802.933 573.064 805.412 567.138 807.491 562.083L807.551 662.274L720.86 711.158Z" stroke="white" stroke-width="7"/>
<path d="M720.86 224.222C724.248 228.566 728.211 233.71 732.464 239.352C745.089 256.102 760.354 277.357 770.663 295.104C780.973 312.85 791.876 336.64 800.172 355.904C802.933 362.316 805.412 368.242 807.491 373.297L807.551 273.106L720.86 224.222Z" stroke="white" stroke-width="7"/>
<path d="M583.152 444.413C565.206 471.055 533 509.61 533 509.61L689.186 516.058L653.364 487.4L677.007 447.995C677.007 447.995 718.163 462.252 736.472 481.669C752.788 498.972 765.13 535.402 765.13 535.402L785.907 544C785.907 544 772.35 489.457 750.085 465.907C731.258 445.994 690.619 428.651 690.619 428.651C690.619 428.651 695.878 407.66 694.201 394.262C692.696 382.234 684.171 364.887 684.171 364.887C684.171 364.887 680.746 405.077 671.275 428.651C662.043 451.631 637.602 482.385 637.602 482.385H589.6L597.54 471.042C598.85 469.171 600.99 468.056 603.275 468.056H627.554C629.401 468.056 631.171 467.332 632.441 465.99C635.31 462.959 640.55 457.141 643.333 452.294C646.292 447.142 648.784 439.068 649.888 435.184C650.3 433.734 650.188 432.197 649.614 430.804L625.422 372.052C625.422 372.052 601.435 417.27 583.152 444.413Z" fill="white"/>
<path d="M659.811 420.055L633.303 356.291C633.303 356.291 637.221 342.656 639.034 333.364C641.553 320.457 641.184 299.691 641.184 299.691L669.842 339.096C669.842 339.096 672.101 365.448 669.842 382.083C667.778 397.281 659.811 420.055 659.811 420.055Z" fill="white"/>
<path d="M682.021 462.325L669.125 483.819C669.125 483.819 682.647 492.887 690.619 499.581C697.247 505.147 706.021 514.095 709.335 517.525C710.221 518.442 711.329 519.103 712.559 519.441L747.218 528.955C747.218 528.955 735.12 499.065 720.709 485.252C708.031 473.098 682.021 462.325 682.021 462.325Z" fill="white"/>
<path d="M709.248 397.844C710.427 408.145 707.815 424.353 707.815 424.353C707.815 424.353 723.224 431.271 732.175 437.249C742.244 443.975 747.316 448.687 755.817 457.31C767.016 468.669 772.628 475.908 780.893 489.55C787.962 501.217 795.939 521.074 795.939 521.074L794.506 493.849C794.506 493.849 793.655 478.091 790.207 468.773C783.867 451.638 774.101 444.707 760.116 432.95C748.288 423.007 726.443 412.173 726.443 412.173C726.443 412.173 726.773 404.303 726.443 399.277C726.147 394.776 725.01 387.814 725.01 387.814H753.668V402.86H738.623C738.623 402.86 753.47 410.46 762.265 416.472C773.416 424.093 783.759 437.249 783.759 437.249C783.759 437.249 779.123 416.124 775.162 402.86C771.262 389.803 763.698 369.903 763.698 369.903L701.367 371.336C701.367 371.336 708.02 387.114 709.248 397.844Z" fill="white"/>
<path d="M708.53 355.573H756.532L722.142 302.556L672.707 248.822C672.707 248.822 673.603 264.498 682.021 276.047C689.959 286.938 712.828 305.422 712.828 305.422L708.53 355.573Z" fill="white"/>
<path d="M692.768 349.842L697.783 309.004C697.783 309.004 686.187 299.63 679.872 292.526C671.159 282.725 666.096 276.768 661.244 264.584C657.022 253.981 655.513 235.926 655.513 235.926L629.004 213C629.004 213 634.328 228.575 636.885 238.792C640.403 252.848 639.131 261.464 643.333 275.331C653.46 308.751 692.768 349.842 692.768 349.842Z" fill="white"/>
<path d="M347.788 444.413C365.734 471.055 397.939 509.61 397.939 509.61L241.753 516.058L277.576 487.4L253.933 447.995C253.933 447.995 212.776 462.252 194.467 481.669C178.152 498.972 165.809 535.402 165.809 535.402L145.032 544C145.032 544 158.59 489.457 180.855 465.907C199.681 445.994 240.32 428.651 240.32 428.651C240.32 428.651 235.062 407.66 236.738 394.262C238.243 382.234 246.768 364.887 246.768 364.887C246.768 364.887 250.194 405.077 259.664 428.651C268.896 451.631 293.338 482.385 293.338 482.385H341.34L333.4 471.042C332.09 469.171 329.949 468.056 327.665 468.056H303.385C301.539 468.056 299.768 467.332 298.499 465.99C295.629 462.959 290.389 457.141 287.606 452.294C284.647 447.142 282.156 439.068 281.052 435.184C280.64 433.734 280.752 432.197 281.325 430.804L305.517 372.052C305.517 372.052 329.504 417.27 347.788 444.413Z" fill="white"/>
<path d="M271.128 420.055L297.637 356.291C297.637 356.291 293.719 342.656 291.905 333.364C289.386 320.457 289.756 299.691 289.756 299.691L261.098 339.096C261.098 339.096 258.839 365.448 261.098 382.083C263.162 397.281 271.128 420.055 271.128 420.055Z" fill="white"/>
<path d="M248.918 462.325L261.814 483.819C261.814 483.819 248.292 492.887 240.321 499.581C233.692 505.147 224.918 514.095 221.604 517.525C220.718 518.442 219.61 519.103 218.38 519.441L183.721 528.955C183.721 528.955 195.82 499.065 210.23 485.252C222.908 473.098 248.918 462.325 248.918 462.325Z" fill="white"/>
<path d="M221.691 397.844C220.513 408.145 223.124 424.353 223.124 424.353C223.124 424.353 207.716 431.271 198.765 437.249C188.695 443.975 183.623 448.687 175.122 457.31C163.924 468.669 158.311 475.908 150.046 489.55C142.978 501.217 135.001 521.074 135.001 521.074L136.434 493.849C136.434 493.849 137.285 478.091 140.732 468.773C147.072 451.638 156.838 444.707 170.823 432.95C182.651 423.007 204.496 412.173 204.496 412.173C204.496 412.173 204.166 404.303 204.496 399.277C204.792 394.776 205.929 387.814 205.929 387.814H177.271V402.86H192.317C192.317 402.86 177.47 410.46 168.674 416.472C157.524 424.093 147.18 437.249 147.18 437.249C147.18 437.249 151.817 416.124 155.778 402.86C159.677 389.803 167.241 369.903 167.241 369.903L229.572 371.336C229.572 371.336 222.919 387.114 221.691 397.844Z" fill="white"/>
<path d="M222.41 355.573H174.408L208.797 302.556L258.232 248.822C258.232 248.822 257.336 264.498 248.919 276.047C240.981 286.938 218.111 305.422 218.111 305.422L222.41 355.573Z" fill="white"/>
<path d="M238.171 349.842L233.156 309.004C233.156 309.004 244.753 299.63 251.068 292.526C259.781 282.725 264.843 276.768 269.695 264.584C273.918 253.981 275.427 235.926 275.427 235.926L301.936 213C301.936 213 296.612 228.575 294.055 238.792C290.536 252.848 291.809 261.464 287.607 275.331C277.48 308.751 238.171 349.842 238.171 349.842Z" fill="white"/>
<path d="M197 619H738" stroke="white" stroke-width="6" stroke-linecap="round"/>
<path d="M288.181 719.1C282.388 719.1 277.951 717.45 274.871 714.15C271.864 710.85 270.361 706.193 270.361 700.18V658.82C270.361 652.807 271.864 648.15 274.871 644.85C277.951 641.55 282.388 639.9 288.181 639.9C293.974 639.9 298.374 641.55 301.381 644.85C304.461 648.15 306.001 652.807 306.001 658.82V666.96H294.561V658.05C294.561 653.283 292.544 650.9 288.511 650.9C284.478 650.9 282.461 653.283 282.461 658.05V701.06C282.461 705.753 284.478 708.1 288.511 708.1C292.544 708.1 294.561 705.753 294.561 701.06V689.29H306.001V700.18C306.001 706.193 304.461 710.85 301.381 714.15C298.374 717.45 293.974 719.1 288.181 719.1ZM322.59 641H338.98L351.52 718H339.42L337.22 702.71V702.93H323.47L321.27 718H310.05L322.59 641ZM335.79 692.48L330.4 654.42H330.18L324.9 692.48H335.79ZM357.391 641H375.651C381.884 641 386.431 642.467 389.291 645.4C392.151 648.26 393.581 652.697 393.581 658.71V661.79C393.581 665.75 392.921 668.977 391.601 671.47C390.354 673.963 388.411 675.76 385.771 676.86V677.08C391.784 679.133 394.791 684.487 394.791 693.14V699.74C394.791 705.68 393.214 710.227 390.061 713.38C386.981 716.46 382.434 718 376.421 718H357.391V641ZM374.221 672.35C376.641 672.35 378.438 671.727 379.611 670.48C380.858 669.233 381.481 667.143 381.481 664.21V659.92C381.481 657.133 380.968 655.117 379.941 653.87C378.988 652.623 377.448 652 375.321 652H369.491V672.35H374.221ZM376.421 707C378.548 707 380.124 706.45 381.151 705.35C382.178 704.177 382.691 702.197 382.691 699.41V692.7C382.691 689.18 382.068 686.76 380.821 685.44C379.648 684.047 377.668 683.35 374.881 683.35H369.491V707H376.421ZM436.531 719.1C430.737 719.1 426.301 717.45 423.221 714.15C420.214 710.85 418.711 706.193 418.711 700.18V658.82C418.711 652.807 420.214 648.15 423.221 644.85C426.301 641.55 430.737 639.9 436.531 639.9C442.324 639.9 446.724 641.55 449.731 644.85C452.811 648.15 454.351 652.807 454.351 658.82V666.96H442.911V658.05C442.911 653.283 440.894 650.9 436.861 650.9C432.827 650.9 430.811 653.283 430.811 658.05V701.06C430.811 705.753 432.827 708.1 436.861 708.1C440.894 708.1 442.911 705.753 442.911 701.06V689.29H454.351V700.18C454.351 706.193 452.811 710.85 449.731 714.15C446.724 717.45 442.324 719.1 436.531 719.1ZM461.59 641H494.59V652H473.69V672.35H490.3V683.35H473.69V707H494.59V718H461.59V641ZM501.551 641H516.731L528.501 687.09H528.721V641H539.501V718H527.071L512.551 661.79H512.331V718H501.551V641ZM557.954 652H545.304V641H582.704V652H570.054V718H557.954V652ZM588.563 641H606.493C612.726 641 617.273 642.467 620.133 645.4C622.993 648.26 624.423 652.697 624.423 658.71V663.44C624.423 671.433 621.783 676.493 616.503 678.62V678.84C619.436 679.72 621.489 681.517 622.663 684.23C623.909 686.943 624.533 690.573 624.533 695.12V708.65C624.533 710.85 624.606 712.647 624.753 714.04C624.899 715.36 625.266 716.68 625.853 718H613.533C613.093 716.753 612.799 715.58 612.653 714.48C612.506 713.38 612.433 711.4 612.433 708.54V694.46C612.433 690.94 611.846 688.483 610.673 687.09C609.573 685.697 607.629 685 604.843 685H600.663V718H588.563V641ZM605.063 674C607.483 674 609.279 673.377 610.453 672.13C611.699 670.883 612.323 668.793 612.323 665.86V659.92C612.323 657.133 611.809 655.117 610.783 653.87C609.829 652.623 608.289 652 606.163 652H600.663V674H605.063ZM632.928 641H665.928V652H645.028V672.35H661.638V683.35H645.028V707H665.928V718H632.928V641Z" fill="white"/>
<path d="M274.5 751H660.5" stroke="white" stroke-width="6" stroke-linecap="round"/>
</svg>
